<?xml version="1.0" encoding="UTF-8" standalone="no"?>
<!-- Generator: Adobe Illustrator 19.0.0, SVG Export Plug-In . SVG Version: 6.00 Build 0)  -->

<svg
   version="1.1"
   id="Layer_1"
   x="0px"
   y="0px"
   viewBox="0 0 128 128"
   xml:space="preserve"
   sodipodi:docname="128.svg"
   inkscape:version="1.1 (c68e22c387, 2021-05-23)"
   width="128"
   height="128"
   xmlns:inkscape="http://www.inkscape.org/namespaces/inkscape"
   xmlns:sodipodi="http://sodipodi.sourceforge.net/DTD/sodipodi-0.dtd"
   xmlns="http://www.w3.org/2000/svg"
   xmlns:svg="http://www.w3.org/2000/svg"><defs
   id="defs137" /><sodipodi:namedview
   id="namedview135"
   pagecolor="#505050"
   bordercolor="#eeeeee"
   borderopacity="1"
   inkscape:pageshadow="0"
   inkscape:pageopacity="0"
   inkscape:pagecheckerboard="0"
   showgrid="false"
   inkscape:zoom="1.5839844"
   inkscape:cx="-269.57336"
   inkscape:cy="64.078914"
   inkscape:window-width="1920"
   inkscape:window-height="1019"
   inkscape:window-x="0"
   inkscape:window-y="30"
   inkscape:window-maximized="1"
   inkscape:current-layer="Layer_1" />
<path
   style="fill:#f1cb30;stroke-width:0.25"
   d="M 64,0 C 28.71044,0 0,28.71044 0,64 0,99.28948 28.71044,128 64,128 99.28948,128 128,99.28948 128,64 128,28.71044 99.28948,0 64,0 Z"
   id="path90" />
<g
   id="g96"
   transform="scale(0.25)">
	<path
   style="fill:#57575c"
   d="m 355.297,175.321 c -8.161,0 -16.167,3.305 -21.938,9.092 -5.773,5.772 -9.092,13.762 -9.092,21.938 0,8.163 3.32,16.168 9.092,21.94 5.772,5.772 13.777,9.09 21.938,9.09 8.161,0 16.167,-3.32 21.938,-9.09 5.773,-5.772 9.092,-13.777 9.092,-21.94 0,-8.176 -3.32,-16.167 -9.092,-21.938 -5.771,-5.787 -13.763,-9.092 -21.938,-9.092 z"
   id="path92" />
	<path
   style="fill:#57575c"
   d="m 178.641,228.291 c 5.773,-5.772 9.092,-13.762 9.092,-21.94 0,-8.176 -3.32,-16.167 -9.092,-21.938 -5.772,-5.787 -13.777,-9.092 -21.938,-9.092 -8.161,0 -16.167,3.305 -21.938,9.092 -5.772,5.772 -9.092,13.762 -9.092,21.938 0,8.176 3.32,16.168 9.092,21.94 5.772,5.786 13.777,9.09 21.938,9.09 8.161,0.001 16.167,-3.304 21.938,-9.09 z"
   id="path94" />
</g>
<path
   style="fill:#df6246;stroke-width:0.25"
   d="M 89.12244,81.52128 C 88.22176,79.34724 86.10048,77.92956 83.74732,77.92956 H 64 44.25228 c -2.35336,0 -4.47452,1.41768 -5.37532,3.59172 -0.90028,2.17396 -0.40268,4.67696 1.26156,6.34076 6.37368,6.3732 14.848,9.88344 23.86148,9.88344 9.01348,0 17.488,-3.51024 23.86148,-9.88344 1.66408,-1.66408 2.16176,-4.167 1.26096,-6.34076 z"
   id="path98" />
<path
   style="fill:#e69629;stroke-width:0.25"
   d="m 40.13796,87.86204 c -1.664,-1.6636 -2.16176,-4.16632 -1.26148,-6.34076 0.9008,-2.17404 3.02196,-3.59172 5.37524,-3.59172 H 64 V 0 C 28.71044,0 0,28.71044 0,64 0,99.28948 28.71044,128 64,128 V 97.74548 c -9.01348,0 -17.488,-3.51024 -23.86204,-9.88344 z M 31.41824,51.588 c 0,-2.044 0.82996,-4.04176 2.273,-5.48448 1.443,-1.44676 3.44428,-2.27308 5.48456,-2.27308 2.0402,0 4.04176,0.82632 5.48448,2.27308 1.44324,1.443 2.273,3.44048 2.273,5.48448 0,2.044 -0.82996,4.04204 -2.273,5.48496 -1.443,1.44656 -3.44428,2.2726 -5.48448,2.2726 -2.04028,0 -4.04184,-0.82624 -5.48456,-2.2726 -1.44304,-1.44292 -2.273,-3.44096 -2.273,-5.48496 z"
   id="path100" />
<path
   style="fill:#dd512a;stroke-width:0.25"
   d="m 44.25228,77.92956 c -2.35336,0 -4.47452,1.41768 -5.37532,3.59172 -0.90028,2.17396 -0.40268,4.67696 1.26156,6.34076 6.37368,6.3732 14.84752,9.88344 23.8612,9.88344 V 77.92956 Z"
   id="path102" />
<g
   id="g104"
   transform="scale(0.25)">
</g>
<g
   id="g106"
   transform="scale(0.25)">
</g>
<g
   id="g108"
   transform="scale(0.25)">
</g>
<g
   id="g110"
   transform="scale(0.25)">
</g>
<g
   id="g112"
   transform="scale(0.25)">
</g>
<g
   id="g114"
   transform="scale(0.25)">
</g>
<g
   id="g116"
   transform="scale(0.25)">
</g>
<g
   id="g118"
   transform="scale(0.25)">
</g>
<g
   id="g120"
   transform="scale(0.25)">
</g>
<g
   id="g122"
   transform="scale(0.25)">
</g>
<g
   id="g124"
   transform="scale(0.25)">
</g>
<g
   id="g126"
   transform="scale(0.25)">
</g>
<g
   id="g128"
   transform="scale(0.25)">
</g>
<g
   id="g130"
   transform="scale(0.25)">
</g>
<g
   id="g132"
   transform="scale(0.25)">
</g>
</svg>
