<?xml version="1.0" encoding="UTF-8" standalone="no"?>
<!-- Generator: Adobe Illustrator 19.0.0, SVG Export Plug-In . SVG Version: 6.00 Build 0)  -->

<svg
   version="1.1"
   id="Layer_1"
   x="0px"
   y="0px"
   viewBox="0 0 16 16"
   xml:space="preserve"
   sodipodi:docname="16.svg"
   inkscape:version="1.1 (c68e22c387, 2021-05-23)"
   width="16"
   height="16"
   xmlns:inkscape="http://www.inkscape.org/namespaces/inkscape"
   xmlns:sodipodi="http://sodipodi.sourceforge.net/DTD/sodipodi-0.dtd"
   xmlns="http://www.w3.org/2000/svg"
   xmlns:svg="http://www.w3.org/2000/svg"><defs
   id="defs137" /><sodipodi:namedview
   id="namedview135"
   pagecolor="#505050"
   bordercolor="#eeeeee"
   borderopacity="1"
   inkscape:pageshadow="0"
   inkscape:pageopacity="0"
   inkscape:pagecheckerboard="0"
   showgrid="false"
   inkscape:zoom="1.5839844"
   inkscape:cx="-325.76078"
   inkscape:cy="7.8914919"
   inkscape:window-width="1920"
   inkscape:window-height="1019"
   inkscape:window-x="0"
   inkscape:window-y="30"
   inkscape:window-maximized="1"
   inkscape:current-layer="Layer_1" />
<path
   style="fill:#f1cb30;stroke-width:0.03125"
   d="M 8,0 C 3.58881,0 0,3.58881 0,8 c 0,4.41119 3.58881,8 8,8 4.41119,0 8,-3.58881 8,-8 C 16,3.58881 12.41119,0 8,0 Z"
   id="path90" />
<g
   id="g96"
   transform="scale(0.03125)">
	<path
   style="fill:#57575c"
   d="m 355.297,175.321 c -8.161,0 -16.167,3.305 -21.938,9.092 -5.773,5.772 -9.092,13.762 -9.092,21.938 0,8.163 3.32,16.168 9.092,21.94 5.772,5.772 13.777,9.09 21.938,9.09 8.161,0 16.167,-3.32 21.938,-9.09 5.773,-5.772 9.092,-13.777 9.092,-21.94 0,-8.176 -3.32,-16.167 -9.092,-21.938 -5.771,-5.787 -13.763,-9.092 -21.938,-9.092 z"
   id="path92" />
	<path
   style="fill:#57575c"
   d="m 178.641,228.291 c 5.773,-5.772 9.092,-13.762 9.092,-21.94 0,-8.176 -3.32,-16.167 -9.092,-21.938 -5.772,-5.787 -13.777,-9.092 -21.938,-9.092 -8.161,0 -16.167,3.305 -21.938,9.092 -5.772,5.772 -9.092,13.762 -9.092,21.938 0,8.176 3.32,16.168 9.092,21.94 5.772,5.786 13.777,9.09 21.938,9.09 8.161,0.001 16.167,-3.304 21.938,-9.09 z"
   id="path94" />
</g>
<path
   style="fill:#df6246;stroke-width:0.03125"
   d="M 11.14031,10.19016 C 11.02772,9.91841 10.76256,9.74119 10.46841,9.74119 H 8 5.53153 c -0.29416,0 -0.55931,0.17722 -0.67191,0.44897 -0.11253,0.27175 -0.0503,0.58462 0.15769,0.79259 0.79672,0.79666 1.856,1.23544 2.98269,1.23544 1.12669,0 2.186,-0.43878 2.98269,-1.23544 0.208,-0.208 0.27022,-0.52087 0.15762,-0.79259 z"
   id="path98" />
<path
   style="fill:#e69629;stroke-width:0.03125"
   d="M 5.01725,10.98275 C 4.80925,10.77481 4.74703,10.46197 4.85956,10.19016 4.97216,9.91841 5.23731,9.74119 5.53147,9.74119 H 8 V 0 C 3.58881,0 0,3.58881 0,8 c 0,4.41119 3.58881,8 8,8 v -3.78181 c -1.12669,0 -2.186,-0.43878 -2.98275,-1.23544 z M 3.92728,6.4485 c 0,-0.2555 0.10375,-0.50522 0.28413,-0.68556 0.18037,-0.18085 0.43053,-0.28413 0.68556,-0.28413 0.25503,0 0.50522,0.10328 0.68556,0.28413 C 5.76294,5.94331 5.86666,6.193 5.86666,6.4485 5.86666,6.704 5.76291,6.95375 5.58253,7.13412 5.40216,7.31494 5.152,7.41819 4.89697,7.41819 4.64194,7.41819 4.39175,7.31491 4.21141,7.13412 4.03103,6.95375 3.92728,6.704 3.92728,6.4485 Z"
   id="path100" />
<path
   style="fill:#dd512a;stroke-width:0.03125"
   d="m 5.53153,9.74119 c -0.29416,0 -0.55931,0.17722 -0.67191,0.44897 -0.11253,0.27175 -0.0503,0.58462 0.15769,0.79259 0.79672,0.79666 1.85594,1.23544 2.98266,1.23544 v -2.477 z"
   id="path102" />
<g
   id="g104"
   transform="scale(0.03125)">
</g>
<g
   id="g106"
   transform="scale(0.03125)">
</g>
<g
   id="g108"
   transform="scale(0.03125)">
</g>
<g
   id="g110"
   transform="scale(0.03125)">
</g>
<g
   id="g112"
   transform="scale(0.03125)">
</g>
<g
   id="g114"
   transform="scale(0.03125)">
</g>
<g
   id="g116"
   transform="scale(0.03125)">
</g>
<g
   id="g118"
   transform="scale(0.03125)">
</g>
<g
   id="g120"
   transform="scale(0.03125)">
</g>
<g
   id="g122"
   transform="scale(0.03125)">
</g>
<g
   id="g124"
   transform="scale(0.03125)">
</g>
<g
   id="g126"
   transform="scale(0.03125)">
</g>
<g
   id="g128"
   transform="scale(0.03125)">
</g>
<g
   id="g130"
   transform="scale(0.03125)">
</g>
<g
   id="g132"
   transform="scale(0.03125)">
</g>
</svg>
