<?xml version="1.0" encoding="UTF-8" standalone="no"?>
<!-- Generator: Adobe Illustrator 19.0.0, SVG Export Plug-In . SVG Version: 6.00 Build 0)  -->

<svg
   version="1.1"
   id="Layer_1"
   x="0px"
   y="0px"
   viewBox="0 0 24 24"
   xml:space="preserve"
   sodipodi:docname="24.svg"
   inkscape:version="1.1 (c68e22c387, 2021-05-23)"
   width="24"
   height="24"
   xmlns:inkscape="http://www.inkscape.org/namespaces/inkscape"
   xmlns:sodipodi="http://sodipodi.sourceforge.net/DTD/sodipodi-0.dtd"
   xmlns="http://www.w3.org/2000/svg"
   xmlns:svg="http://www.w3.org/2000/svg"><defs
   id="defs137" /><sodipodi:namedview
   id="namedview135"
   pagecolor="#505050"
   bordercolor="#eeeeee"
   borderopacity="1"
   inkscape:pageshadow="0"
   inkscape:pageopacity="0"
   inkscape:pagecheckerboard="0"
   showgrid="false"
   inkscape:zoom="1.5839844"
   inkscape:cx="-321.34155"
   inkscape:cy="12.310727"
   inkscape:window-width="1920"
   inkscape:window-height="1019"
   inkscape:window-x="0"
   inkscape:window-y="30"
   inkscape:window-maximized="1"
   inkscape:current-layer="Layer_1" />
<path
   style="fill:#f1cb30;stroke-width:0.046875"
   d="M 12,0 C 5.38321,0 0,5.38321 0,12 0,18.61678 5.38321,24 12,24 18.61678,24 24,18.61678 24,12 24,5.38321 18.61678,0 12,0 Z"
   id="path90" />
<g
   id="g96"
   transform="scale(0.046875)">
	<path
   style="fill:#57575c"
   d="m 355.297,175.321 c -8.161,0 -16.167,3.305 -21.938,9.092 -5.773,5.772 -9.092,13.762 -9.092,21.938 0,8.163 3.32,16.168 9.092,21.94 5.772,5.772 13.777,9.09 21.938,9.09 8.161,0 16.167,-3.32 21.938,-9.09 5.773,-5.772 9.092,-13.777 9.092,-21.94 0,-8.176 -3.32,-16.167 -9.092,-21.938 -5.771,-5.787 -13.763,-9.092 -21.938,-9.092 z"
   id="path92" />
	<path
   style="fill:#57575c"
   d="m 178.641,228.291 c 5.773,-5.772 9.092,-13.762 9.092,-21.94 0,-8.176 -3.32,-16.167 -9.092,-21.938 -5.772,-5.787 -13.777,-9.092 -21.938,-9.092 -8.161,0 -16.167,3.305 -21.938,9.092 -5.772,5.772 -9.092,13.762 -9.092,21.938 0,8.176 3.32,16.168 9.092,21.94 5.772,5.786 13.777,9.09 21.938,9.09 8.161,0.001 16.167,-3.304 21.938,-9.09 z"
   id="path94" />
</g>
<path
   style="fill:#df6246;stroke-width:0.046875"
   d="M 16.71046,15.28524 C 16.54158,14.87761 16.14384,14.61179 15.70262,14.61179 H 12 8.2973 c -0.44125,0 -0.83897,0.26582 -1.00787,0.67345 -0.1688,0.40762 -0.0755,0.87693 0.23654,1.18889 1.19507,1.19498 2.784,1.85315 4.47403,1.85315 1.69003,0 3.279,-0.65817 4.47403,-1.85315 0.31201,-0.31201 0.40533,-0.78131 0.23643,-1.18889 z"
   id="path98" />
<path
   style="fill:#e69629;stroke-width:0.046875"
   d="M 7.52587,16.47413 C 7.21387,16.16221 7.12054,15.69295 7.28934,15.28524 7.45824,14.87761 7.85596,14.61179 8.2972,14.61179 H 12 V 0 C 5.38321,0 0,5.38321 0,12 0,18.61678 5.38321,24 12,24 v -5.67272 c -1.69003,0 -3.279,-0.65817 -4.47413,-1.85315 z M 5.89092,9.67275 c 0,-0.38325 0.15562,-0.75783 0.42619,-1.02834 0.27056,-0.27127 0.6458,-0.4262 1.02835,-0.4262 0.38254,0 0.75783,0.15493 1.02834,0.4262 0.27061,0.27056 0.42619,0.64509 0.42619,1.02834 0,0.38325 -0.15562,0.75788 -0.42619,1.02843 -0.27056,0.27123 -0.6458,0.42611 -1.02834,0.42611 -0.38255,0 -0.75784,-0.15492 -1.02835,-0.42611 C 6.04654,10.43063 5.89092,10.056 5.89092,9.67275 Z"
   id="path100" />
<path
   style="fill:#dd512a;stroke-width:0.046875"
   d="m 8.2973,14.61179 c -0.44125,0 -0.83897,0.26582 -1.00787,0.67345 -0.1688,0.40762 -0.0755,0.87693 0.23654,1.18889 1.19507,1.19498 2.78391,1.85315 4.47398,1.85315 v -3.71549 z"
   id="path102" />
<g
   id="g104"
   transform="scale(0.046875)">
</g>
<g
   id="g106"
   transform="scale(0.046875)">
</g>
<g
   id="g108"
   transform="scale(0.046875)">
</g>
<g
   id="g110"
   transform="scale(0.046875)">
</g>
<g
   id="g112"
   transform="scale(0.046875)">
</g>
<g
   id="g114"
   transform="scale(0.046875)">
</g>
<g
   id="g116"
   transform="scale(0.046875)">
</g>
<g
   id="g118"
   transform="scale(0.046875)">
</g>
<g
   id="g120"
   transform="scale(0.046875)">
</g>
<g
   id="g122"
   transform="scale(0.046875)">
</g>
<g
   id="g124"
   transform="scale(0.046875)">
</g>
<g
   id="g126"
   transform="scale(0.046875)">
</g>
<g
   id="g128"
   transform="scale(0.046875)">
</g>
<g
   id="g130"
   transform="scale(0.046875)">
</g>
<g
   id="g132"
   transform="scale(0.046875)">
</g>
</svg>
