<?xml version="1.0" encoding="UTF-8" standalone="no"?>
<!-- Generator: Adobe Illustrator 19.0.0, SVG Export Plug-In . SVG Version: 6.00 Build 0)  -->

<svg
   version="1.1"
   id="Layer_1"
   x="0px"
   y="0px"
   viewBox="0 0 32 32"
   xml:space="preserve"
   sodipodi:docname="32.svg"
   inkscape:version="1.1 (c68e22c387, 2021-05-23)"
   width="32"
   height="32"
   xmlns:inkscape="http://www.inkscape.org/namespaces/inkscape"
   xmlns:sodipodi="http://sodipodi.sourceforge.net/DTD/sodipodi-0.dtd"
   xmlns="http://www.w3.org/2000/svg"
   xmlns:svg="http://www.w3.org/2000/svg"><defs
   id="defs137" /><sodipodi:namedview
   id="namedview135"
   pagecolor="#505050"
   bordercolor="#eeeeee"
   borderopacity="1"
   inkscape:pageshadow="0"
   inkscape:pageopacity="0"
   inkscape:pagecheckerboard="0"
   showgrid="false"
   inkscape:zoom="1.5839844"
   inkscape:cx="-317.55363"
   inkscape:cy="16.098643"
   inkscape:window-width="1920"
   inkscape:window-height="1019"
   inkscape:window-x="0"
   inkscape:window-y="30"
   inkscape:window-maximized="1"
   inkscape:current-layer="Layer_1" />
<path
   style="fill:#f1cb30;stroke-width:0.0625"
   d="M 16,0 C 7.17761,0 0,7.17761 0,16 0,24.82237 7.17761,32 16,32 24.82237,32 32,24.82237 32,16 32,7.17761 24.82237,0 16,0 Z"
   id="path90" />
<g
   id="g96"
   transform="scale(0.0625)">
	<path
   style="fill:#57575c"
   d="m 355.297,175.321 c -8.161,0 -16.167,3.305 -21.938,9.092 -5.773,5.772 -9.092,13.762 -9.092,21.938 0,8.163 3.32,16.168 9.092,21.94 5.772,5.772 13.777,9.09 21.938,9.09 8.161,0 16.167,-3.32 21.938,-9.09 5.773,-5.772 9.092,-13.777 9.092,-21.94 0,-8.176 -3.32,-16.167 -9.092,-21.938 -5.771,-5.787 -13.763,-9.092 -21.938,-9.092 z"
   id="path92" />
	<path
   style="fill:#57575c"
   d="m 178.641,228.291 c 5.773,-5.772 9.092,-13.762 9.092,-21.94 0,-8.176 -3.32,-16.167 -9.092,-21.938 -5.772,-5.787 -13.777,-9.092 -21.938,-9.092 -8.161,0 -16.167,3.305 -21.938,9.092 -5.772,5.772 -9.092,13.762 -9.092,21.938 0,8.176 3.32,16.168 9.092,21.94 5.772,5.786 13.777,9.09 21.938,9.09 8.161,0.001 16.167,-3.304 21.938,-9.09 z"
   id="path94" />
</g>
<path
   style="fill:#df6246;stroke-width:0.0625"
   d="M 22.28061,20.38032 C 22.05544,19.83681 21.52512,19.48239 20.93683,19.48239 H 16 11.06307 c -0.58834,0 -1.11863,0.35442 -1.34383,0.89793 -0.22507,0.54349 -0.10067,1.16924 0.31539,1.58519 1.59342,1.5933 3.712,2.47086 5.96537,2.47086 2.25337,0 4.372,-0.87756 5.96537,-2.47086 0.41602,-0.41602 0.54044,-1.04175 0.31524,-1.58519 z"
   id="path98" />
<path
   style="fill:#e69629;stroke-width:0.0625"
   d="m 10.03449,21.96551 c -0.416,-0.4159 -0.54044,-1.04158 -0.31537,-1.58519 0.2252,-0.54351 0.75549,-0.89793 1.34381,-0.89793 H 16 V 0 C 7.17761,0 0,7.17761 0,16 0,24.82237 7.17761,32 16,32 v -7.56363 c -2.25337,0 -4.372,-0.87756 -5.96551,-2.47086 z M 7.85456,12.897 c 0,-0.511 0.20749,-1.01044 0.56825,-1.37112 0.36075,-0.36169 0.86107,-0.56827 1.37114,-0.56827 0.51005,0 1.01044,0.20658 1.37112,0.56827 0.36081,0.36075 0.56825,0.86012 0.56825,1.37112 0,0.511 -0.20749,1.01051 -0.56825,1.37124 -0.36075,0.36164 -0.86107,0.56815 -1.37112,0.56815 -0.51007,0 -1.01046,-0.20656 -1.37114,-0.56815 C 8.06205,13.90751 7.85456,13.408 7.85456,12.897 Z"
   id="path100" />
<path
   style="fill:#dd512a;stroke-width:0.0625"
   d="m 11.06307,19.48239 c -0.58834,0 -1.11863,0.35442 -1.34383,0.89793 -0.22507,0.54349 -0.10067,1.16924 0.31539,1.58519 1.59342,1.5933 3.71188,2.47086 5.9653,2.47086 v -4.95398 z"
   id="path102" />
<g
   id="g104"
   transform="scale(0.0625)">
</g>
<g
   id="g106"
   transform="scale(0.0625)">
</g>
<g
   id="g108"
   transform="scale(0.0625)">
</g>
<g
   id="g110"
   transform="scale(0.0625)">
</g>
<g
   id="g112"
   transform="scale(0.0625)">
</g>
<g
   id="g114"
   transform="scale(0.0625)">
</g>
<g
   id="g116"
   transform="scale(0.0625)">
</g>
<g
   id="g118"
   transform="scale(0.0625)">
</g>
<g
   id="g120"
   transform="scale(0.0625)">
</g>
<g
   id="g122"
   transform="scale(0.0625)">
</g>
<g
   id="g124"
   transform="scale(0.0625)">
</g>
<g
   id="g126"
   transform="scale(0.0625)">
</g>
<g
   id="g128"
   transform="scale(0.0625)">
</g>
<g
   id="g130"
   transform="scale(0.0625)">
</g>
<g
   id="g132"
   transform="scale(0.0625)">
</g>
</svg>
