<?xml version="1.0" encoding="UTF-8" standalone="no"?>
<!-- Generator: Adobe Illustrator 19.0.0, SVG Export Plug-In . SVG Version: 6.00 Build 0)  -->

<svg
   version="1.1"
   id="Layer_1"
   x="0px"
   y="0px"
   viewBox="0 0 48 48"
   xml:space="preserve"
   sodipodi:docname="48.svg"
   inkscape:version="1.1 (c68e22c387, 2021-05-23)"
   width="48"
   height="48"
   xmlns:inkscape="http://www.inkscape.org/namespaces/inkscape"
   xmlns:sodipodi="http://sodipodi.sourceforge.net/DTD/sodipodi-0.dtd"
   xmlns="http://www.w3.org/2000/svg"
   xmlns:svg="http://www.w3.org/2000/svg"><defs
   id="defs137" /><sodipodi:namedview
   id="namedview135"
   pagecolor="#505050"
   bordercolor="#eeeeee"
   borderopacity="1"
   inkscape:pageshadow="0"
   inkscape:pageopacity="0"
   inkscape:pagecheckerboard="0"
   showgrid="false"
   inkscape:zoom="1.5839844"
   inkscape:cx="-309.34648"
   inkscape:cy="24.305795"
   inkscape:window-width="1920"
   inkscape:window-height="1019"
   inkscape:window-x="0"
   inkscape:window-y="30"
   inkscape:window-maximized="1"
   inkscape:current-layer="Layer_1" />
<path
   style="fill:#f1cb30;stroke-width:0.09375"
   d="M 24,0 C 10.76641,0 0,10.76641 0,24 0,37.23356 10.76641,48 24,48 37.23356,48 48,37.23356 48,24 48,10.76641 37.23356,0 24,0 Z"
   id="path90" />
<g
   id="g96"
   transform="scale(0.09375)">
	<path
   style="fill:#57575c"
   d="m 355.297,175.321 c -8.161,0 -16.167,3.305 -21.938,9.092 -5.773,5.772 -9.092,13.762 -9.092,21.938 0,8.163 3.32,16.168 9.092,21.94 5.772,5.772 13.777,9.09 21.938,9.09 8.161,0 16.167,-3.32 21.938,-9.09 5.773,-5.772 9.092,-13.777 9.092,-21.94 0,-8.176 -3.32,-16.167 -9.092,-21.938 -5.771,-5.787 -13.763,-9.092 -21.938,-9.092 z"
   id="path92" />
	<path
   style="fill:#57575c"
   d="m 178.641,228.291 c 5.773,-5.772 9.092,-13.762 9.092,-21.94 0,-8.176 -3.32,-16.167 -9.092,-21.938 -5.772,-5.787 -13.777,-9.092 -21.938,-9.092 -8.161,0 -16.167,3.305 -21.938,9.092 -5.772,5.772 -9.092,13.762 -9.092,21.938 0,8.176 3.32,16.168 9.092,21.94 5.772,5.786 13.777,9.09 21.938,9.09 8.161,0.001 16.167,-3.304 21.938,-9.09 z"
   id="path94" />
</g>
<path
   style="fill:#df6246;stroke-width:0.09375"
   d="m 33.42091,30.57048 c -0.33775,-0.81526 -1.13323,-1.3469 -2.01566,-1.3469 H 24 16.5946 c -0.88251,0 -1.67794,0.53164 -2.01574,1.3469 -0.3376,0.81523 -0.151,1.75386 0.47309,2.37778 2.39013,2.38995 5.568,3.70629 8.94805,3.70629 3.38005,0 6.558,-1.31634 8.94805,-3.70629 0.62404,-0.62403 0.81067,-1.56262 0.47286,-2.37778 z"
   id="path98" />
<path
   style="fill:#e69629;stroke-width:0.09375"
   d="m 15.05173,32.94826 c -0.624,-0.62385 -0.81066,-1.56237 -0.47305,-2.37778 0.3378,-0.81526 1.13323,-1.3469 2.01571,-1.3469 H 24 V 0 C 10.76641,0 0,10.76641 0,24 0,37.23356 10.76641,48 24,48 V 36.65455 c -3.38006,0 -6.558,-1.31634 -8.94827,-3.70629 z M 11.78184,19.3455 c 0,-0.7665 0.31123,-1.51566 0.85237,-2.05668 0.54113,-0.54254 1.29161,-0.85241 2.05671,-0.85241 0.76508,0 1.51566,0.30987 2.05668,0.85241 0.54122,0.54112 0.85238,1.29018 0.85238,2.05668 0,0.7665 -0.31124,1.51576 -0.85238,2.05686 -0.54112,0.54246 -1.2916,0.85223 -2.05668,0.85223 -0.7651,0 -1.51569,-0.30985 -2.05671,-0.85223 -0.54114,-0.5411 -0.85237,-1.29036 -0.85237,-2.05686 z"
   id="path100" />
<path
   style="fill:#dd512a;stroke-width:0.09375"
   d="m 16.5946,29.22358 c -0.88251,0 -1.67794,0.53164 -2.01574,1.3469 -0.3376,0.81523 -0.151,1.75386 0.47309,2.37778 2.39013,2.38995 5.56782,3.70629 8.94794,3.70629 v -7.43097 z"
   id="path102" />
<g
   id="g104"
   transform="scale(0.09375)">
</g>
<g
   id="g106"
   transform="scale(0.09375)">
</g>
<g
   id="g108"
   transform="scale(0.09375)">
</g>
<g
   id="g110"
   transform="scale(0.09375)">
</g>
<g
   id="g112"
   transform="scale(0.09375)">
</g>
<g
   id="g114"
   transform="scale(0.09375)">
</g>
<g
   id="g116"
   transform="scale(0.09375)">
</g>
<g
   id="g118"
   transform="scale(0.09375)">
</g>
<g
   id="g120"
   transform="scale(0.09375)">
</g>
<g
   id="g122"
   transform="scale(0.09375)">
</g>
<g
   id="g124"
   transform="scale(0.09375)">
</g>
<g
   id="g126"
   transform="scale(0.09375)">
</g>
<g
   id="g128"
   transform="scale(0.09375)">
</g>
<g
   id="g130"
   transform="scale(0.09375)">
</g>
<g
   id="g132"
   transform="scale(0.09375)">
</g>
</svg>
