<?xml version="1.0" encoding="UTF-8" standalone="no"?>
<!-- Generator: Adobe Illustrator 19.0.0, SVG Export Plug-In . SVG Version: 6.00 Build 0)  -->

<svg
   version="1.1"
   id="Layer_1"
   x="0px"
   y="0px"
   viewBox="0 0 64 64"
   xml:space="preserve"
   sodipodi:docname="64.svg"
   inkscape:version="1.1 (c68e22c387, 2021-05-23)"
   width="64"
   height="64"
   xmlns:inkscape="http://www.inkscape.org/namespaces/inkscape"
   xmlns:sodipodi="http://sodipodi.sourceforge.net/DTD/sodipodi-0.dtd"
   xmlns="http://www.w3.org/2000/svg"
   xmlns:svg="http://www.w3.org/2000/svg"><defs
   id="defs137" /><sodipodi:namedview
   id="namedview135"
   pagecolor="#505050"
   bordercolor="#eeeeee"
   borderopacity="1"
   inkscape:pageshadow="0"
   inkscape:pageopacity="0"
   inkscape:pagecheckerboard="0"
   showgrid="false"
   inkscape:zoom="1.5839844"
   inkscape:cx="-301.77065"
   inkscape:cy="31.881627"
   inkscape:window-width="1920"
   inkscape:window-height="1019"
   inkscape:window-x="0"
   inkscape:window-y="30"
   inkscape:window-maximized="1"
   inkscape:current-layer="Layer_1" />
<path
   style="fill:#f1cb30;stroke-width:0.125"
   d="M 32,0 C 14.35522,0 0,14.35522 0,32 0,49.64474 14.35522,64 32,64 49.64474,64 64,49.64474 64,32 64,14.35522 49.64474,0 32,0 Z"
   id="path90" />
<g
   id="g96"
   transform="scale(0.125)">
	<path
   style="fill:#57575c"
   d="m 355.297,175.321 c -8.161,0 -16.167,3.305 -21.938,9.092 -5.773,5.772 -9.092,13.762 -9.092,21.938 0,8.163 3.32,16.168 9.092,21.94 5.772,5.772 13.777,9.09 21.938,9.09 8.161,0 16.167,-3.32 21.938,-9.09 5.773,-5.772 9.092,-13.777 9.092,-21.94 0,-8.176 -3.32,-16.167 -9.092,-21.938 -5.771,-5.787 -13.763,-9.092 -21.938,-9.092 z"
   id="path92" />
	<path
   style="fill:#57575c"
   d="m 178.641,228.291 c 5.773,-5.772 9.092,-13.762 9.092,-21.94 0,-8.176 -3.32,-16.167 -9.092,-21.938 -5.772,-5.787 -13.777,-9.092 -21.938,-9.092 -8.161,0 -16.167,3.305 -21.938,9.092 -5.772,5.772 -9.092,13.762 -9.092,21.938 0,8.176 3.32,16.168 9.092,21.94 5.772,5.786 13.777,9.09 21.938,9.09 8.161,0.001 16.167,-3.304 21.938,-9.09 z"
   id="path94" />
</g>
<path
   style="fill:#df6246;stroke-width:0.125"
   d="M 44.56122,40.76064 C 44.11088,39.67362 43.05024,38.96478 41.87366,38.96478 H 32 22.12614 c -1.17668,0 -2.23726,0.70884 -2.68766,1.79586 -0.45014,1.08698 -0.20134,2.33848 0.63078,3.17038 3.18684,3.1866 7.424,4.94172 11.93074,4.94172 4.50674,0 8.744,-1.75512 11.93074,-4.94172 0.83204,-0.83204 1.08088,-2.0835 0.63048,-3.17038 z"
   id="path98" />
<path
   style="fill:#e69629;stroke-width:0.125"
   d="m 20.06898,43.93102 c -0.832,-0.8318 -1.08088,-2.08316 -0.63074,-3.17038 0.4504,-1.08702 1.51098,-1.79586 2.68762,-1.79586 H 32 V 0 C 14.35522,0 0,14.35522 0,32 0,49.64474 14.35522,64 32,64 V 48.87274 c -4.50674,0 -8.744,-1.75512 -11.93102,-4.94172 z M 15.70912,25.794 c 0,-1.022 0.41498,-2.02088 1.1365,-2.74224 0.7215,-0.72338 1.72214,-1.13654 2.74228,-1.13654 1.0201,0 2.02088,0.41316 2.74224,1.13654 0.72162,0.7215 1.1365,1.72024 1.1365,2.74224 0,1.022 -0.41498,2.02102 -1.1365,2.74248 -0.7215,0.72328 -1.72214,1.1363 -2.74224,1.1363 -1.02014,0 -2.02092,-0.41312 -2.74228,-1.1363 C 16.1241,27.81502 15.70912,26.816 15.70912,25.794 Z"
   id="path100" />
<path
   style="fill:#dd512a;stroke-width:0.125"
   d="m 22.12614,38.96478 c -1.17668,0 -2.23726,0.70884 -2.68766,1.79586 -0.45014,1.08698 -0.20134,2.33848 0.63078,3.17038 3.18684,3.1866 7.42376,4.94172 11.9306,4.94172 v -9.90796 z"
   id="path102" />
<g
   id="g104"
   transform="scale(0.125)">
</g>
<g
   id="g106"
   transform="scale(0.125)">
</g>
<g
   id="g108"
   transform="scale(0.125)">
</g>
<g
   id="g110"
   transform="scale(0.125)">
</g>
<g
   id="g112"
   transform="scale(0.125)">
</g>
<g
   id="g114"
   transform="scale(0.125)">
</g>
<g
   id="g116"
   transform="scale(0.125)">
</g>
<g
   id="g118"
   transform="scale(0.125)">
</g>
<g
   id="g120"
   transform="scale(0.125)">
</g>
<g
   id="g122"
   transform="scale(0.125)">
</g>
<g
   id="g124"
   transform="scale(0.125)">
</g>
<g
   id="g126"
   transform="scale(0.125)">
</g>
<g
   id="g128"
   transform="scale(0.125)">
</g>
<g
   id="g130"
   transform="scale(0.125)">
</g>
<g
   id="g132"
   transform="scale(0.125)">
</g>
</svg>
