<?xml version="1.0" encoding="UTF-8" standalone="no"?>
<!-- Generator: Adobe Illustrator 19.0.0, SVG Export Plug-In . SVG Version: 6.00 Build 0)  -->

<svg
   version="1.1"
   id="Layer_1"
   x="0px"
   y="0px"
   viewBox="0 0 16 16"
   xml:space="preserve"
   sodipodi:docname="symbolic.svg"
   inkscape:version="1.1 (c68e22c387, 2021-05-23)"
   width="16"
   height="16"
   xmlns:inkscape="http://www.inkscape.org/namespaces/inkscape"
   xmlns:sodipodi="http://sodipodi.sourceforge.net/DTD/sodipodi-0.dtd"
   xmlns="http://www.w3.org/2000/svg"
   xmlns:svg="http://www.w3.org/2000/svg"><defs
   id="defs137" /><sodipodi:namedview
   id="namedview135"
   pagecolor="#505050"
   bordercolor="#eeeeee"
   borderopacity="1"
   inkscape:pageshadow="0"
   inkscape:pageopacity="0"
   inkscape:pagecheckerboard="0"
   showgrid="false"
   inkscape:zoom="1.5839844"
   inkscape:cx="-325.76078"
   inkscape:cy="7.8914919"
   inkscape:window-width="1920"
   inkscape:window-height="1019"
   inkscape:window-x="0"
   inkscape:window-y="30"
   inkscape:window-maximized="1"
   inkscape:current-layer="Layer_1" />
<path
   style="fill:#808080;stroke-width:0.03125"
   d="M 8,0 C 3.5888,0 0,3.5888 0,8 c 0,4.41119 3.5888,8 8,8 4.41119,0 8,-3.58881 8,-8 C 16,3.5888 12.41119,0 8,0 Z"
   id="path90" />
<g
   id="g96"
   transform="scale(0.03125)"
   style="fill:#ffffff">
	<path
   style="fill:#ffffff"
   d="m 355.297,175.321 c -8.161,0 -16.167,3.305 -21.938,9.092 -5.773,5.772 -9.092,13.762 -9.092,21.938 0,8.163 3.32,16.168 9.092,21.94 5.772,5.772 13.777,9.09 21.938,9.09 8.161,0 16.167,-3.32 21.938,-9.09 5.773,-5.772 9.092,-13.777 9.092,-21.94 0,-8.176 -3.32,-16.167 -9.092,-21.938 -5.771,-5.787 -13.763,-9.092 -21.938,-9.092 z"
   id="path92" />
	<path
   style="fill:#ffffff"
   d="m 178.641,228.291 c 5.773,-5.772 9.092,-13.762 9.092,-21.94 0,-8.176 -3.32,-16.167 -9.092,-21.938 -5.772,-5.787 -13.777,-9.092 -21.938,-9.092 -8.161,0 -16.167,3.305 -21.938,9.092 -5.772,5.772 -9.092,13.762 -9.092,21.938 0,8.176 3.32,16.168 9.092,21.94 5.772,5.786 13.777,9.09 21.938,9.09 8.161,0.001 16.167,-3.304 21.938,-9.09 z"
   id="path94" />
</g>
<path
   style="fill:#ffffff;stroke-width:0.03125"
   d="M 11.1403,10.19016 C 11.02772,9.91841 10.76256,9.74119 10.46842,9.74119 H 8 5.53153 c -0.29417,0 -0.55931,0.17722 -0.67191,0.44897 -0.11253,0.27174 -0.0503,0.58462 0.1577,0.79259 0.79671,0.79665 1.856,1.23543 2.98268,1.23543 1.12668,0 2.186,-0.43878 2.98268,-1.23543 0.20802,-0.20801 0.27023,-0.52087 0.15762,-0.79259 z"
   id="path98" />
<path
   style="fill:#666666;stroke-width:0.03125"
   d="M 5.01724,10.98275 C 4.80924,10.7748 4.74702,10.46196 4.85956,10.19016 4.97216,9.91841 5.2373,9.74119 5.53146,9.74119 H 8 V 0 C 3.5888,0 0,3.5888 0,8 c 0,4.41119 3.5888,8 8,8 v -3.78182 c -1.12669,0 -2.186,-0.43878 -2.98276,-1.23543 z M 3.92728,6.4485 C 3.92728,6.193 4.03102,5.94328 4.2114,5.76294 4.39178,5.58209 4.64194,5.4788 4.89697,5.4788 5.152,5.4788 5.40219,5.58209 5.58253,5.76294 5.76294,5.94331 5.86666,6.193 5.86666,6.4485 5.86666,6.704 5.76291,6.95375 5.58253,7.13412 5.40216,7.31494 5.152,7.4182 4.89697,7.4182 4.64194,7.4182 4.39174,7.31491 4.2114,7.13412 4.03102,6.95375 3.92728,6.704 3.92728,6.4485 Z"
   id="path100" />
<path
   style="fill:#e6e6e6;stroke-width:0.03125"
   d="m 5.53153,9.74119 c -0.29417,0 -0.55931,0.17722 -0.67191,0.44897 -0.11253,0.27174 -0.0503,0.58462 0.1577,0.79259 0.79671,0.79665 1.85594,1.23543 2.98264,1.23543 V 9.74119 Z"
   id="path102" />
<g
   id="g104"
   transform="scale(0.03125)">
</g>
<g
   id="g106"
   transform="scale(0.03125)">
</g>
<g
   id="g108"
   transform="scale(0.03125)">
</g>
<g
   id="g110"
   transform="scale(0.03125)">
</g>
<g
   id="g112"
   transform="scale(0.03125)">
</g>
<g
   id="g114"
   transform="scale(0.03125)">
</g>
<g
   id="g116"
   transform="scale(0.03125)">
</g>
<g
   id="g118"
   transform="scale(0.03125)">
</g>
<g
   id="g120"
   transform="scale(0.03125)">
</g>
<g
   id="g122"
   transform="scale(0.03125)">
</g>
<g
   id="g124"
   transform="scale(0.03125)">
</g>
<g
   id="g126"
   transform="scale(0.03125)">
</g>
<g
   id="g128"
   transform="scale(0.03125)">
</g>
<g
   id="g130"
   transform="scale(0.03125)">
</g>
<g
   id="g132"
   transform="scale(0.03125)">
</g>
</svg>
